<mxfile host="Electron" modified="2023-04-28T02:27:26.661Z" agent="Mozilla/5.0 (X11; Linux x86_64) AppleWebKit/537.36 (KHTML, like Gecko) draw.io/21.2.1 Chrome/112.0.5615.87 Electron/24.1.2 Safari/537.36" etag="xLASXq-xFWtRU8J5K_lx" version="21.2.1" type="device">
  <diagram name="Page-1" id="smdETlFllVw4XbRR1lrk">
    <mxGraphModel dx="1335" dy="785" grid="1" gridSize="10" guides="1" tooltips="1" connect="1" arrows="1" fold="1" page="1" pageScale="1" pageWidth="850" pageHeight="1100" background="#ffffff" math="0" shadow="0">
      <root>
        <mxCell id="0" />
        <mxCell id="1" parent="0" />
        <mxCell id="o_qKyB2CnmtH7gAWDN2e-6" value="" style="group;strokeWidth=3;" parent="1" vertex="1" connectable="0">
          <mxGeometry x="60" y="30" width="20" height="60" as="geometry" />
        </mxCell>
        <UserObject label="" tooltip="Mux 2" id="6JHMLhQybe-Iv5T99SlE-1">
          <mxCell style="shape=stencil(rZRtb4MgEMc/DS/bKMT4erNr+jUQr5WUggFWu336ocDiQ3VrN0OMd3/8cXfAIVKYmjaAcFIjskMY54l7ObP1JgkmNQ0w631XqjktBXjFWK3O0PLKBgKXNWhuO5W8oeTFzekGKZiS0kG4kmakDHQHo1y6f5Obh4XlP4K1xZl3NG6JC1jQXki9F+H90+T838jbbIJO8eOQdMJ4KDpSOM9SuUlRUnY+afUuq7vhNLTbypkQ5Yu6wmIZ1xKNAMHlAEDGhDT7MyJ7AjEm5L/KgwllYGVbnX+hlKQ4ciH8zVkB/Diho7gv1VDGbYgd5a/Rznc+DaaE0t+qt6K2hLZwG57G8ZEmwewmbahkdcRfeFXFxnBU0m4M/4SAwAN3C/xUh3ZSKlEFqUvHh4nJvn+mXWQwDncr3sc9uwuzE997fevrHV8=);whiteSpace=wrap;html=1;fillStyle=solid;strokeWidth=3;labelBackgroundColor=none;fillColor=default;gradientColor=none;gradientDirection=east;" parent="o_qKyB2CnmtH7gAWDN2e-6" vertex="1">
            <mxGeometry width="20" height="60" as="geometry" />
          </mxCell>
        </UserObject>
        <mxCell id="o_qKyB2CnmtH7gAWDN2e-1" value="&lt;b style=&quot;font-size: 16px;&quot;&gt;0&lt;/b&gt;" style="text;html=1;strokeColor=none;fillColor=none;align=center;verticalAlign=middle;whiteSpace=wrap;rounded=0;points=[];fontSize=16;" parent="o_qKyB2CnmtH7gAWDN2e-6" vertex="1">
          <mxGeometry x="5.333333333333333" y="13.714285714285712" width="6.666666666666666" height="8.571428571428571" as="geometry" />
        </mxCell>
        <mxCell id="o_qKyB2CnmtH7gAWDN2e-2" value="&lt;b style=&quot;font-size: 16px;&quot;&gt;1&lt;/b&gt;" style="text;html=1;strokeColor=none;fillColor=none;align=center;verticalAlign=middle;whiteSpace=wrap;rounded=0;points=[];fontSize=16;" parent="o_qKyB2CnmtH7gAWDN2e-6" vertex="1">
          <mxGeometry x="5.333333333333333" y="36" width="6.666666666666666" height="8.571428571428571" as="geometry" />
        </mxCell>
        <mxCell id="o_qKyB2CnmtH7gAWDN2e-24" value="" style="group" parent="1" vertex="1" connectable="0">
          <mxGeometry x="120" y="150" width="100" height="40" as="geometry" />
        </mxCell>
        <mxCell id="o_qKyB2CnmtH7gAWDN2e-19" value="" style="shape=stencil(pZPdjsIgEIWfhluDYNPrFfU9ENktEYEAq+vb79QB40+rq5s0Tc859GOYTgkXqZNBE0Y7wheEsRmFG8gDyiktWqagVUZzL6ORa6sxSTn6rT6YTS4I4zodTe5TviT0A9b0FxfKOwcQ4126Si5ygEnj4F36g7Cy/bGoSdugEWCLnc46ljrRJWz1Z/KkuUGz5nXI9IbxUnVcgDPWFC7WUm2/ov92m8FyguwbfhfUeOf3eqyNVQ6ftBKscReE8yQcr4j/QczeYLxDUNYn/eDDgj/STC4+jbU44Q8ATxf0FHjyQSqTS+2knVfdLvAYylsfzymqmg0Oz92InFz8pU/GLw==);whiteSpace=wrap;html=1;fillStyle=solid;strokeWidth=3;labelBackgroundColor=none;rotation=0;" parent="o_qKyB2CnmtH7gAWDN2e-24" vertex="1">
          <mxGeometry width="100" height="40" as="geometry" />
        </mxCell>
        <mxCell id="o_qKyB2CnmtH7gAWDN2e-22" value="&lt;b&gt;Extnd&lt;/b&gt;" style="text;html=1;strokeColor=none;fillColor=none;align=center;verticalAlign=middle;whiteSpace=wrap;rounded=0;points=[];fontSize=16;" parent="o_qKyB2CnmtH7gAWDN2e-24" vertex="1">
          <mxGeometry x="28.360000000000014" y="20" width="50" height="14" as="geometry" />
        </mxCell>
        <mxCell id="o_qKyB2CnmtH7gAWDN2e-31" value="" style="group" parent="1" vertex="1" connectable="0">
          <mxGeometry x="411" y="923" width="99" height="40" as="geometry" />
        </mxCell>
        <mxCell id="o_qKyB2CnmtH7gAWDN2e-40" style="edgeStyle=orthogonalEdgeStyle;shape=connector;rounded=0;orthogonalLoop=1;jettySize=auto;html=1;exitX=0.5;exitY=0.25;exitDx=0;exitDy=0;exitPerimeter=0;labelBackgroundColor=default;strokeColor=default;strokeWidth=3;fontFamily=Helvetica;fontSize=12;fontColor=default;endArrow=none;endFill=0;" parent="o_qKyB2CnmtH7gAWDN2e-31" source="o_qKyB2CnmtH7gAWDN2e-32" edge="1">
          <mxGeometry relative="1" as="geometry">
            <mxPoint x="49.5" y="-3" as="targetPoint" />
          </mxGeometry>
        </mxCell>
        <mxCell id="o_qKyB2CnmtH7gAWDN2e-54" value="&lt;font style=&quot;font-size: 12px;&quot;&gt;ImmSel&lt;/font&gt;" style="edgeLabel;html=1;align=center;verticalAlign=middle;resizable=0;points=[];fontSize=14;fontFamily=Helvetica;fontColor=default;fontStyle=0" parent="o_qKyB2CnmtH7gAWDN2e-40" vertex="1" connectable="0">
          <mxGeometry x="0.4457" y="1" relative="1" as="geometry">
            <mxPoint x="-3" y="-11" as="offset" />
          </mxGeometry>
        </mxCell>
        <mxCell id="o_qKyB2CnmtH7gAWDN2e-32" value="" style="shape=stencil(pZPdjsIgEIWfhluDYNPrFfU9ENktEYEAq+vb79QB40+rq5s0Tc859GOYTgkXqZNBE0Y7wheEsRmFG8gDyiktWqagVUZzL6ORa6sxSTn6rT6YTS4I4zodTe5TviT0A9b0FxfKOwcQ4126Si5ygEnj4F36g7Cy/bGoSdugEWCLnc46ljrRJWz1Z/KkuUGz5nXI9IbxUnVcgDPWFC7WUm2/ov92m8FyguwbfhfUeOf3eqyNVQ6ftBKscReE8yQcr4j/QczeYLxDUNYn/eDDgj/STC4+jbU44Q8ATxf0FHjyQSqTS+2knVfdLvAYylsfzymqmg0Oz92InFz8pU/GLw==);whiteSpace=wrap;html=1;fillStyle=solid;strokeWidth=3;labelBackgroundColor=none;rotation=0;" parent="o_qKyB2CnmtH7gAWDN2e-31" vertex="1">
          <mxGeometry width="99" height="40" as="geometry" />
        </mxCell>
        <mxCell id="o_qKyB2CnmtH7gAWDN2e-33" value="&lt;b&gt;Extnd&lt;/b&gt;" style="text;html=1;strokeColor=none;fillColor=none;align=center;verticalAlign=middle;whiteSpace=wrap;rounded=0;points=[];fontSize=16;" parent="o_qKyB2CnmtH7gAWDN2e-31" vertex="1">
          <mxGeometry x="28.076400000000014" y="20" width="49.5" height="14" as="geometry" />
        </mxCell>
        <mxCell id="o_qKyB2CnmtH7gAWDN2e-42" style="edgeStyle=orthogonalEdgeStyle;shape=connector;rounded=0;orthogonalLoop=1;jettySize=auto;html=1;exitX=1;exitY=0.5;exitDx=0;exitDy=0;labelBackgroundColor=default;strokeColor=default;strokeWidth=3;fontFamily=Helvetica;fontSize=12;fontColor=default;endArrow=none;endFill=0;entryX=0;entryY=0.75;entryDx=0;entryDy=0;" parent="1" source="ynFBelKNf0GUv3wZ8bNa-8" target="ynFBelKNf0GUv3wZ8bNa-29" edge="1">
          <mxGeometry relative="1" as="geometry">
            <mxPoint x="724" y="870.3333333333335" as="targetPoint" />
            <mxPoint x="642" y="867" as="sourcePoint" />
          </mxGeometry>
        </mxCell>
        <mxCell id="o_qKyB2CnmtH7gAWDN2e-46" style="edgeStyle=orthogonalEdgeStyle;shape=connector;rounded=0;orthogonalLoop=1;jettySize=auto;html=1;exitX=0;exitY=0.25;exitDx=0;exitDy=0;labelBackgroundColor=default;strokeColor=default;strokeWidth=3;fontFamily=Helvetica;fontSize=12;fontColor=default;endArrow=none;endFill=0;entryX=1;entryY=0.5;entryDx=0;entryDy=0;" parent="1" source="ynFBelKNf0GUv3wZ8bNa-29" target="ynFBelKNf0GUv3wZ8bNa-12" edge="1">
          <mxGeometry relative="1" as="geometry">
            <mxPoint x="642" y="762" as="targetPoint" />
          </mxGeometry>
        </mxCell>
        <mxCell id="ynFBelKNf0GUv3wZ8bNa-7" value="" style="group" parent="1" vertex="1" connectable="0">
          <mxGeometry x="605.0000000000001" y="810" width="20" height="60" as="geometry" />
        </mxCell>
        <mxCell id="XMEyDX0NUFnbQW_EWCy9-114" style="edgeStyle=orthogonalEdgeStyle;shape=connector;rounded=0;orthogonalLoop=1;jettySize=auto;html=1;exitX=0.5;exitY=0.12;exitDx=0;exitDy=0;exitPerimeter=0;labelBackgroundColor=default;strokeColor=default;strokeWidth=2;fontFamily=Helvetica;fontSize=12;fontColor=default;endArrow=none;endFill=0;" edge="1" parent="ynFBelKNf0GUv3wZ8bNa-7" source="ynFBelKNf0GUv3wZ8bNa-8">
          <mxGeometry relative="1" as="geometry">
            <mxPoint x="10.137931034482676" y="-10" as="targetPoint" />
          </mxGeometry>
        </mxCell>
        <UserObject label="" tooltip="Mux 2" id="ynFBelKNf0GUv3wZ8bNa-8">
          <mxCell style="shape=stencil(rZRtb4MgEMc/DS/bKMT4erNr+jUQr5WUggFWu336ocDiQ3VrN0OMd3/8cXfAIVKYmjaAcFIjskMY54l7ObP1JgkmNQ0w631XqjktBXjFWK3O0PLKBgKXNWhuO5W8oeTFzekGKZiS0kG4kmakDHQHo1y6f5Obh4XlP4K1xZl3NG6JC1jQXki9F+H90+T838jbbIJO8eOQdMJ4KDpSOM9SuUlRUnY+afUuq7vhNLTbypkQ5Yu6wmIZ1xKNAMHlAEDGhDT7MyJ7AjEm5L/KgwllYGVbnX+hlKQ4ciH8zVkB/Diho7gv1VDGbYgd5a/Rznc+DaaE0t+qt6K2hLZwG57G8ZEmwewmbahkdcRfeFXFxnBU0m4M/4SAwAN3C/xUh3ZSKlEFqUvHh4nJvn+mXWQwDncr3sc9uwuzE997fevrHV8=);whiteSpace=wrap;html=1;fillStyle=solid;strokeWidth=3;labelBackgroundColor=none;fillColor=default;gradientColor=none;gradientDirection=east;" parent="ynFBelKNf0GUv3wZ8bNa-7" vertex="1">
            <mxGeometry width="20" height="60" as="geometry" />
          </mxCell>
        </UserObject>
        <mxCell id="ynFBelKNf0GUv3wZ8bNa-9" value="&lt;b style=&quot;font-size: 16px;&quot;&gt;0&lt;/b&gt;" style="text;html=1;strokeColor=none;fillColor=none;align=center;verticalAlign=middle;whiteSpace=wrap;rounded=0;points=[];fontSize=16;" parent="ynFBelKNf0GUv3wZ8bNa-7" vertex="1">
          <mxGeometry x="5.333333333333333" y="13.714285714285712" width="6.666666666666666" height="8.571428571428571" as="geometry" />
        </mxCell>
        <mxCell id="ynFBelKNf0GUv3wZ8bNa-10" value="&lt;b style=&quot;font-size: 16px;&quot;&gt;1&lt;/b&gt;" style="text;html=1;strokeColor=none;fillColor=none;align=center;verticalAlign=middle;whiteSpace=wrap;rounded=0;points=[];fontSize=16;" parent="ynFBelKNf0GUv3wZ8bNa-7" vertex="1">
          <mxGeometry x="5.333333333333333" y="36" width="6.666666666666666" height="8.571428571428571" as="geometry" />
        </mxCell>
        <mxCell id="ynFBelKNf0GUv3wZ8bNa-11" value="" style="group" parent="1" vertex="1" connectable="0">
          <mxGeometry x="605.0000000000001" y="732" width="20" height="60" as="geometry" />
        </mxCell>
        <mxCell id="XMEyDX0NUFnbQW_EWCy9-115" style="edgeStyle=orthogonalEdgeStyle;shape=connector;rounded=0;orthogonalLoop=1;jettySize=auto;html=1;exitX=0.5;exitY=0.12;exitDx=0;exitDy=0;exitPerimeter=0;labelBackgroundColor=default;strokeColor=default;strokeWidth=2;fontFamily=Helvetica;fontSize=12;fontColor=default;endArrow=none;endFill=0;" edge="1" parent="ynFBelKNf0GUv3wZ8bNa-11" source="ynFBelKNf0GUv3wZ8bNa-12">
          <mxGeometry relative="1" as="geometry">
            <mxPoint x="9.999999999999886" y="-12" as="targetPoint" />
          </mxGeometry>
        </mxCell>
        <UserObject label="" tooltip="Mux 2" id="ynFBelKNf0GUv3wZ8bNa-12">
          <mxCell style="shape=stencil(rZRtb4MgEMc/DS/bKMT4erNr+jUQr5WUggFWu336ocDiQ3VrN0OMd3/8cXfAIVKYmjaAcFIjskMY54l7ObP1JgkmNQ0w631XqjktBXjFWK3O0PLKBgKXNWhuO5W8oeTFzekGKZiS0kG4kmakDHQHo1y6f5Obh4XlP4K1xZl3NG6JC1jQXki9F+H90+T838jbbIJO8eOQdMJ4KDpSOM9SuUlRUnY+afUuq7vhNLTbypkQ5Yu6wmIZ1xKNAMHlAEDGhDT7MyJ7AjEm5L/KgwllYGVbnX+hlKQ4ciH8zVkB/Diho7gv1VDGbYgd5a/Rznc+DaaE0t+qt6K2hLZwG57G8ZEmwewmbahkdcRfeFXFxnBU0m4M/4SAwAN3C/xUh3ZSKlEFqUvHh4nJvn+mXWQwDncr3sc9uwuzE997fevrHV8=);whiteSpace=wrap;html=1;fillStyle=solid;strokeWidth=3;labelBackgroundColor=none;fillColor=default;gradientColor=none;gradientDirection=east;" parent="ynFBelKNf0GUv3wZ8bNa-11" vertex="1">
            <mxGeometry width="20" height="60" as="geometry" />
          </mxCell>
        </UserObject>
        <mxCell id="ynFBelKNf0GUv3wZ8bNa-13" value="&lt;b style=&quot;font-size: 16px;&quot;&gt;0&lt;/b&gt;" style="text;html=1;strokeColor=none;fillColor=none;align=center;verticalAlign=middle;whiteSpace=wrap;rounded=0;points=[];fontSize=16;" parent="ynFBelKNf0GUv3wZ8bNa-11" vertex="1">
          <mxGeometry x="5.333333333333333" y="13.714285714285712" width="6.666666666666666" height="8.571428571428571" as="geometry" />
        </mxCell>
        <mxCell id="ynFBelKNf0GUv3wZ8bNa-14" value="&lt;b style=&quot;font-size: 16px;&quot;&gt;1&lt;/b&gt;" style="text;html=1;strokeColor=none;fillColor=none;align=center;verticalAlign=middle;whiteSpace=wrap;rounded=0;points=[];fontSize=16;" parent="ynFBelKNf0GUv3wZ8bNa-11" vertex="1">
          <mxGeometry x="5.333333333333333" y="36" width="6.666666666666666" height="8.571428571428571" as="geometry" />
        </mxCell>
        <mxCell id="ynFBelKNf0GUv3wZ8bNa-15" value="" style="group" parent="1" vertex="1" connectable="0">
          <mxGeometry x="170" y="30" width="50" height="110" as="geometry" />
        </mxCell>
        <mxCell id="o_qKyB2CnmtH7gAWDN2e-7" value="" style="shape=stencil(rZThbsIgFIWfhr+GQljjzw2390BkKxGBANPt7Ue91Nhqu9k1aZrec+jHIVxAlMdGeIUIbhDdIEKqCud3rk9Qs1KK6JVMoB1F0GJrFDgxBbdXJ71LBaFto4JOrUtfEX7OY9qHcumszRDtbOw5V36GCW3zv/gLYGX671KtCAPB5ykOKqlQYoOKyNtscr0YecUGaLx+HFINGIulG4IpfoRMeVbGNpLyrZD7j+A+7e5uHi/aJrkxOvvgjmp0g6ZW2gGMtlcA1icsgFjPQPQJl/M1H/E0g1D1W5Kx/4ZgfwohjYtqoj+zPtISlL9rY+BumQD8OqCl5C/nhdSpZEf1S1fXG1iGdMaFiwtV5909AjeNflbhMj0LPw==);whiteSpace=wrap;html=1;fillStyle=solid;strokeWidth=3;labelBackgroundColor=none;" parent="ynFBelKNf0GUv3wZ8bNa-15" vertex="1">
          <mxGeometry width="50" height="110" as="geometry" />
        </mxCell>
        <mxCell id="o_qKyB2CnmtH7gAWDN2e-8" value="&lt;b style=&quot;font-size: 16px;&quot;&gt;ALU&lt;/b&gt;" style="text;html=1;strokeColor=none;fillColor=none;align=center;verticalAlign=middle;whiteSpace=wrap;rounded=0;points=[];fontSize=16;" parent="ynFBelKNf0GUv3wZ8bNa-15" vertex="1">
          <mxGeometry x="17" y="25" width="10" height="10" as="geometry" />
        </mxCell>
        <UserObject label="" tooltip="Mux 2" id="ynFBelKNf0GUv3wZ8bNa-18">
          <mxCell style="shape=stencil(rZRhb4MgEIZ/DR+7WEjj582u6d9ApPVSCgZY7fbrBx4sdla3dDPEeO+LD8fJSVjlWt5JQouWsC2htCzCLYQ9hiyF3HVSeNQu3AKvlUTHeWtOsofGJwLoVlrw0WWvpHgOc+JglTBaBwgY7W6ckR9gHHR4t7giLC3/nqKnDcZdWOEsvbSor1EldPdr8PovYFYFZW47rKq5OB2tedPN3XQ6Hks1MbJ9Nhc5W4CljWaAAj0CsP8mlA8gHiEIZZxc+KpBn6kkqw6gFB7MBcCPEyIlPJmOC/Apd1K+5Ljc4jaEUcZ+uRhlbw7t5XV8GDc39WEpjJNWXIs248/QNLnvDkb7lYMPmRB0JPcSjm3q1tqoJllxO5gmZbvh+t6ko7G/W/Eh70krTA78oOKfZRA+AQ==);whiteSpace=wrap;html=1;fillStyle=solid;strokeWidth=3;labelBackgroundColor=none;fillColor=default;gradientColor=none;gradientDirection=east;" parent="1" vertex="1">
            <mxGeometry x="20" y="130" width="20" height="60" as="geometry" />
          </mxCell>
        </UserObject>
        <UserObject label="" tooltip="Mux 2" id="ynFBelKNf0GUv3wZ8bNa-21">
          <mxCell style="shape=stencil(rZTbboMwDIafJpedgGjieqOr9hohuCVqmqAkK+2efjlOMKAb7RBC2H/47JjYCFe6JR2gImsR3qKiKDP7sGYfTBxNojugJvjORDFScwiKNkoeoWeNiQQmWlDMOBW/oezFrnE3rqgUwkKYFHqkDHQLI0zYb7NLgMXw12g9PQe7sxFOYEAFfx68qNj9GZxI11Gcx7n5IwnjynqWyoSrmtDjQckP0cym0xH3CyZCkk/yDIuFvbXRBOBMDAD4vwnlHYh7CJRLDSvjzB6WNYB8TMiL9Yg1SfiDtHAecLVnnIe2vQH4dYGj2DfZEcpMTAqVr8kutyFBKrlU32qwkraENnAZttR44ziabtGGCNom/Ik1TZpKeynMRrNPGNfbu3tghzbOslryJkpuOyHNAu/89XOEDe732Yr7vCcNPWlb7w1z1zu+AA==);whiteSpace=wrap;html=1;fillStyle=solid;strokeWidth=3;labelBackgroundColor=none;fillColor=default;gradientColor=none;gradientDirection=east;" parent="1" vertex="1">
            <mxGeometry x="70" y="130" width="20" height="60" as="geometry" />
          </mxCell>
        </UserObject>
        <mxCell id="ynFBelKNf0GUv3wZ8bNa-28" value="" style="group" parent="1" vertex="1" connectable="0">
          <mxGeometry x="684" y="735" width="50" height="110" as="geometry" />
        </mxCell>
        <mxCell id="XMEyDX0NUFnbQW_EWCy9-116" style="edgeStyle=orthogonalEdgeStyle;shape=connector;rounded=0;orthogonalLoop=1;jettySize=auto;html=1;exitX=0.5;exitY=0.09;exitDx=0;exitDy=0;exitPerimeter=0;labelBackgroundColor=default;strokeColor=default;strokeWidth=3;fontFamily=Helvetica;fontSize=12;fontColor=default;endArrow=none;endFill=0;" edge="1" parent="ynFBelKNf0GUv3wZ8bNa-28" source="ynFBelKNf0GUv3wZ8bNa-29">
          <mxGeometry relative="1" as="geometry">
            <mxPoint x="25.28571428571422" y="-5" as="targetPoint" />
          </mxGeometry>
        </mxCell>
        <mxCell id="XMEyDX0NUFnbQW_EWCy9-141" value="ALUSel" style="edgeLabel;html=1;align=center;verticalAlign=middle;resizable=0;points=[];fontSize=12;fontFamily=Helvetica;fontColor=default;" vertex="1" connectable="0" parent="XMEyDX0NUFnbQW_EWCy9-116">
          <mxGeometry x="0.954" y="1" relative="1" as="geometry">
            <mxPoint y="-9" as="offset" />
          </mxGeometry>
        </mxCell>
        <mxCell id="XMEyDX0NUFnbQW_EWCy9-117" style="edgeStyle=orthogonalEdgeStyle;shape=connector;rounded=0;orthogonalLoop=1;jettySize=auto;html=1;exitX=1;exitY=0.3;exitDx=0;exitDy=0;labelBackgroundColor=default;strokeColor=default;strokeWidth=2;fontFamily=Helvetica;fontSize=12;fontColor=default;endArrow=none;endFill=0;" edge="1" parent="ynFBelKNf0GUv3wZ8bNa-28" source="ynFBelKNf0GUv3wZ8bNa-29">
          <mxGeometry relative="1" as="geometry">
            <mxPoint x="66" y="33" as="targetPoint" />
          </mxGeometry>
        </mxCell>
        <mxCell id="XMEyDX0NUFnbQW_EWCy9-142" value="&lt;font style=&quot;font-size: 10px;&quot;&gt;Zero&lt;/font&gt;" style="edgeLabel;html=1;align=center;verticalAlign=middle;resizable=0;points=[];fontSize=12;fontFamily=Helvetica;fontColor=default;" vertex="1" connectable="0" parent="XMEyDX0NUFnbQW_EWCy9-117">
          <mxGeometry x="0.6806" relative="1" as="geometry">
            <mxPoint x="2" y="-9" as="offset" />
          </mxGeometry>
        </mxCell>
        <mxCell id="ynFBelKNf0GUv3wZ8bNa-29" value="" style="shape=stencil(rZThbsIgFIWfhr+GQljjzw2390BkKxGBANPt7Ue91Nhqu9k1aZrec+jHIVxAlMdGeIUIbhDdIEKqCud3rk9Qs1KK6JVMoB1F0GJrFDgxBbdXJ71LBaFto4JOrUtfEX7OY9qHcumszRDtbOw5V36GCW3zv/gLYGX671KtCAPB5ykOKqlQYoOKyNtscr0YecUGaLx+HFINGIulG4IpfoRMeVbGNpLyrZD7j+A+7e5uHi/aJrkxOvvgjmp0g6ZW2gGMtlcA1icsgFjPQPQJl/M1H/E0g1D1W5Kx/4ZgfwohjYtqoj+zPtISlL9rY+BumQD8OqCl5C/nhdSpZEf1S1fXG1iGdMaFiwtV5909AjeNflbhMj0LPw==);whiteSpace=wrap;html=1;fillStyle=solid;strokeWidth=3;labelBackgroundColor=none;" parent="ynFBelKNf0GUv3wZ8bNa-28" vertex="1">
          <mxGeometry width="50" height="110" as="geometry" />
        </mxCell>
        <mxCell id="ynFBelKNf0GUv3wZ8bNa-30" value="&lt;b style=&quot;font-size: 16px;&quot;&gt;ALU&lt;/b&gt;" style="text;html=1;strokeColor=none;fillColor=none;align=center;verticalAlign=middle;whiteSpace=wrap;rounded=0;points=[];fontSize=16;" parent="ynFBelKNf0GUv3wZ8bNa-28" vertex="1">
          <mxGeometry x="17" y="25" width="10" height="10" as="geometry" />
        </mxCell>
        <mxCell id="ynFBelKNf0GUv3wZ8bNa-44" style="edgeStyle=orthogonalEdgeStyle;shape=connector;rounded=0;orthogonalLoop=1;jettySize=auto;html=1;exitX=1;exitY=0.23;exitDx=0;exitDy=0;exitPerimeter=0;entryX=0;entryY=0.25;entryDx=0;entryDy=0;labelBackgroundColor=default;strokeColor=default;strokeWidth=3;fontFamily=Helvetica;fontSize=12;fontColor=default;endArrow=none;endFill=0;" parent="1" source="XMEyDX0NUFnbQW_EWCy9-23" target="ynFBelKNf0GUv3wZ8bNa-12" edge="1">
          <mxGeometry relative="1" as="geometry">
            <mxPoint x="520" y="746.6399999999999" as="sourcePoint" />
          </mxGeometry>
        </mxCell>
        <mxCell id="ynFBelKNf0GUv3wZ8bNa-62" style="edgeStyle=orthogonalEdgeStyle;shape=connector;rounded=0;orthogonalLoop=1;jettySize=auto;html=1;exitX=0;exitY=0.25;exitDx=0;exitDy=0;entryX=1;entryY=0.5;entryDx=0;entryDy=0;labelBackgroundColor=default;strokeColor=default;strokeWidth=3;fontFamily=Helvetica;fontSize=12;fontColor=default;endArrow=none;endFill=0;shadow=0;" parent="1" source="ynFBelKNf0GUv3wZ8bNa-60" target="ynFBelKNf0GUv3wZ8bNa-61" edge="1">
          <mxGeometry relative="1" as="geometry" />
        </mxCell>
        <mxCell id="XMEyDX0NUFnbQW_EWCy9-57" style="edgeStyle=orthogonalEdgeStyle;shape=connector;rounded=0;orthogonalLoop=1;jettySize=auto;html=1;exitX=1;exitY=0.5;exitDx=0;exitDy=0;entryX=0;entryY=0.75;entryDx=0;entryDy=0;labelBackgroundColor=default;strokeColor=default;strokeWidth=3;fontFamily=Helvetica;fontSize=12;fontColor=default;endArrow=none;endFill=0;" edge="1" parent="1" source="ynFBelKNf0GUv3wZ8bNa-61" target="ynFBelKNf0GUv3wZ8bNa-12">
          <mxGeometry relative="1" as="geometry">
            <Array as="points">
              <mxPoint x="190" y="746" />
              <mxPoint x="190" y="670" />
              <mxPoint x="530" y="670" />
              <mxPoint x="530" y="777" />
            </Array>
          </mxGeometry>
        </mxCell>
        <mxCell id="XMEyDX0NUFnbQW_EWCy9-58" style="edgeStyle=orthogonalEdgeStyle;shape=connector;rounded=0;orthogonalLoop=1;jettySize=auto;html=1;exitX=1;exitY=0.5;exitDx=0;exitDy=0;entryX=0;entryY=0.25;entryDx=0;entryDy=0;labelBackgroundColor=default;strokeColor=default;strokeWidth=3;fontFamily=Helvetica;fontSize=12;fontColor=default;endArrow=none;endFill=0;" edge="1" parent="1" source="ynFBelKNf0GUv3wZ8bNa-61" target="XMEyDX0NUFnbQW_EWCy9-31">
          <mxGeometry relative="1" as="geometry">
            <Array as="points">
              <mxPoint x="190" y="746" />
              <mxPoint x="190" y="670" />
              <mxPoint x="639" y="670" />
            </Array>
          </mxGeometry>
        </mxCell>
        <mxCell id="XMEyDX0NUFnbQW_EWCy9-89" style="edgeStyle=orthogonalEdgeStyle;shape=connector;rounded=0;orthogonalLoop=1;jettySize=auto;html=1;exitX=1;exitY=0.5;exitDx=0;exitDy=0;entryX=0;entryY=0.75;entryDx=0;entryDy=0;labelBackgroundColor=default;strokeColor=default;strokeWidth=3;fontFamily=Helvetica;fontSize=12;fontColor=default;endArrow=none;endFill=0;" edge="1" parent="1" source="ynFBelKNf0GUv3wZ8bNa-61" target="XMEyDX0NUFnbQW_EWCy9-87">
          <mxGeometry relative="1" as="geometry">
            <Array as="points">
              <mxPoint x="190" y="746" />
              <mxPoint x="190" y="635" />
            </Array>
          </mxGeometry>
        </mxCell>
        <UserObject label="" tooltip="Mux 2" id="ynFBelKNf0GUv3wZ8bNa-61">
          <mxCell style="shape=stencil(rZTbboMwDIafJpedgGjieqOr9hohuCVqmqAkK+2efjlOMKAb7RBC2H/47JjYCFe6JR2gImsR3qKiKDP7sGYfTBxNojugJvjORDFScwiKNkoeoWeNiQQmWlDMOBW/oezFrnE3rqgUwkKYFHqkDHQLI0zYb7NLgMXw12g9PQe7sxFOYEAFfx68qNj9GZxI11Gcx7n5IwnjynqWyoSrmtDjQckP0cym0xH3CyZCkk/yDIuFvbXRBOBMDAD4vwnlHYh7CJRLDSvjzB6WNYB8TMiL9Yg1SfiDtHAecLVnnIe2vQH4dYGj2DfZEcpMTAqVr8kutyFBKrlU32qwkraENnAZttR44ziabtGGCNom/Ik1TZpKeynMRrNPGNfbu3tghzbOslryJkpuOyHNAu/89XOEDe732Yr7vCcNPWlb7w1z1zu+AA==);whiteSpace=wrap;html=1;fillStyle=solid;strokeWidth=3;labelBackgroundColor=none;fillColor=default;gradientColor=none;gradientDirection=east;" parent="1" vertex="1">
            <mxGeometry x="150.0000000000001" y="716" width="20" height="60" as="geometry" />
          </mxCell>
        </UserObject>
        <mxCell id="XMEyDX0NUFnbQW_EWCy9-4" value="" style="group" vertex="1" connectable="0" parent="1">
          <mxGeometry x="218" y="690" width="90" height="161" as="geometry" />
        </mxCell>
        <UserObject label="" tooltip="Mux 2" id="ynFBelKNf0GUv3wZ8bNa-60">
          <mxCell style="shape=stencil(tZTtboMgFIavhp9dLKzx92bX7DYQT+tJEQyw2u3qhwKN/dClTWeI8T0vPhwOH4QVtuYtEJrVhK0JpcvXzL+97oLOo+S2BeFC7MAN8lJCcKwzeg8dVi4iUNVg0PUu+yDZm+/TN1YIrZSHoFb2zBn5HsZR+X+zY4DF4b+jelkF3foRGnBgYtYhSujmYTB9Gnn5Xylfgu9LmRU+MrUErCi52O+M/lLVzXxa3i/vlZHsRh9gsrZzM00AiWoEyJ9NOG3rexgPIYTUFmYW1scnasmKLUoZjtMM4M8OPcV/6ZYLdDF5kr8nna/DNISW2pzcoJI3hXZwHO/H1VmBWJR9pwVXok74Bqsq3RZbrdzC4g9EBB2FO8BdHe+YUssqWv10QpqUbYbn8moZtc+bFR/yvjoMV1t+iIYLcQj8Ag==);whiteSpace=wrap;html=1;fillStyle=solid;strokeWidth=3;labelBackgroundColor=none;fillColor=default;gradientColor=none;gradientDirection=east;rotation=0;" parent="XMEyDX0NUFnbQW_EWCy9-4" vertex="1">
            <mxGeometry y="21" width="90" height="140" as="geometry" />
          </mxCell>
        </UserObject>
        <mxCell id="XMEyDX0NUFnbQW_EWCy9-1" value="&lt;b&gt;InstrMem&lt;/b&gt;" style="text;html=1;strokeColor=none;fillColor=none;align=center;verticalAlign=middle;whiteSpace=wrap;rounded=0;points=[];fontSize=16;" vertex="1" parent="XMEyDX0NUFnbQW_EWCy9-4">
          <mxGeometry x="4" width="82" height="16" as="geometry" />
        </mxCell>
        <mxCell id="XMEyDX0NUFnbQW_EWCy9-7" value="" style="group" vertex="1" connectable="0" parent="1">
          <mxGeometry x="370" y="40" width="90" height="161" as="geometry" />
        </mxCell>
        <UserObject label="" tooltip="Mux 2" id="XMEyDX0NUFnbQW_EWCy9-8">
          <mxCell style="shape=stencil(tZTtboMgFIavhp9dLKzx92bX7DYQT+tJEQyw2u3qhwKN/dClTWeI8T0vPhwOH4QVtuYtEJrVhK0JpcvXzL+97oLOo+S2BeFC7MAN8lJCcKwzeg8dVi4iUNVg0PUu+yDZm+/TN1YIrZSHoFb2zBn5HsZR+X+zY4DF4b+jelkF3foRGnBgYtYhSujmYTB9Gnn5Xylfgu9LmRU+MrUErCi52O+M/lLVzXxa3i/vlZHsRh9gsrZzM00AiWoEyJ9NOG3rexgPIYTUFmYW1scnasmKLUoZjtMM4M8OPcV/6ZYLdDF5kr8nna/DNISW2pzcoJI3hXZwHO/H1VmBWJR9pwVXok74Bqsq3RZbrdzC4g9EBB2FO8BdHe+YUssqWv10QpqUbYbn8moZtc+bFR/yvjoMV1t+iIYLcQj8Ag==);whiteSpace=wrap;html=1;fillStyle=solid;strokeWidth=3;labelBackgroundColor=none;fillColor=default;gradientColor=none;gradientDirection=east;rotation=0;" vertex="1" parent="XMEyDX0NUFnbQW_EWCy9-7">
            <mxGeometry y="21" width="90" height="140" as="geometry" />
          </mxCell>
        </UserObject>
        <mxCell id="XMEyDX0NUFnbQW_EWCy9-9" value="&lt;b&gt;InstrMem&lt;/b&gt;" style="text;html=1;strokeColor=none;fillColor=none;align=center;verticalAlign=middle;whiteSpace=wrap;rounded=0;points=[];fontSize=16;" vertex="1" parent="XMEyDX0NUFnbQW_EWCy9-7">
          <mxGeometry x="4" width="82" height="16" as="geometry" />
        </mxCell>
        <mxCell id="XMEyDX0NUFnbQW_EWCy9-20" value="" style="group" vertex="1" connectable="0" parent="1">
          <mxGeometry x="240" y="33" width="110" height="168" as="geometry" />
        </mxCell>
        <UserObject label="" tooltip="Mux 2" id="ynFBelKNf0GUv3wZ8bNa-51">
          <mxCell style="shape=stencil(rZThboMgEMefho9tLBfH582u2Wsg0kqKYIDVbk8/EFx01q7tZojx7o8/7i7cIShsTVuOcFYj2CKMSeZf3uyiCcmktuXMRd+JGkFLyaNindFH3onKJYJQNTfCBRVeUfbs94QFBdNKeYjQyk6Uke5hVCj/b3aOsHT8R7LWebRbf0LDHTfRv4lehHc3g9eETNH3gKHwnqV0oCgpOx6MflfVxXBaGko1Ewa50Se+WIBriQ4AKdQIAP9NIA8gHiEwqS2/85y/lwvDhJA/QHi6PYb+Ii3cByj2QsrYXlcAv24IFP+lW8qES0Eh8jLYZBsDZFpq861Ga9CW0I6fRy21ySeJQzLDphVVrB7wjaiqYXrstXIrKz55QuCRu+PiUKeZU2pZJSmkE8PEsOufn6NmtN4uVryPe9bQs7btvXE+9o4v);whiteSpace=wrap;html=1;fillStyle=solid;strokeWidth=3;labelBackgroundColor=none;fillColor=default;gradientColor=none;gradientDirection=east;points=[[0,0.23,0,0,0],[0,0.43,0,0,0],[0,0.63,0,0,0],[0,0.82,0,0,0],[0.77,0,0,0,0],[1,0.23,0,0,0],[1,0.5,0,0,0]];" parent="XMEyDX0NUFnbQW_EWCy9-20" vertex="1">
            <mxGeometry width="110" height="168" as="geometry" />
          </mxCell>
        </UserObject>
        <mxCell id="ynFBelKNf0GUv3wZ8bNa-52" value="&lt;b&gt;RegFile&lt;/b&gt;" style="text;html=1;strokeColor=none;fillColor=none;align=center;verticalAlign=middle;whiteSpace=wrap;rounded=0;points=[];fontSize=16;" parent="XMEyDX0NUFnbQW_EWCy9-20" vertex="1">
          <mxGeometry x="6.53844036697248" y="4" width="50.45871559633027" height="14" as="geometry" />
        </mxCell>
        <mxCell id="XMEyDX0NUFnbQW_EWCy9-22" value="" style="group" vertex="1" connectable="0" parent="1">
          <mxGeometry x="400" y="708" width="110" height="168" as="geometry" />
        </mxCell>
        <UserObject label="" tooltip="Mux 2" id="XMEyDX0NUFnbQW_EWCy9-23">
          <mxCell style="shape=stencil(rZThboMgEMefho9tLBfH582u2Wsg0kqKYIDVbk8/EFx01q7tZojx7o8/7i7cIShsTVuOcFYj2CKMSeZf3uyiCcmktuXMRd+JGkFLyaNindFH3onKJYJQNTfCBRVeUfbs94QFBdNKeYjQyk6Uke5hVCj/b3aOsHT8R7LWebRbf0LDHTfRv4lehHc3g9eETNH3gKHwnqV0oCgpOx6MflfVxXBaGko1Ewa50Se+WIBriQ4AKdQIAP9NIA8gHiEwqS2/85y/lwvDhJA/QHi6PYb+Ii3cByj2QsrYXlcAv24IFP+lW8qES0Eh8jLYZBsDZFpq861Ga9CW0I6fRy21ySeJQzLDphVVrB7wjaiqYXrstXIrKz55QuCRu+PiUKeZU2pZJSmkE8PEsOufn6NmtN4uVryPe9bQs7btvXE+9o4v);whiteSpace=wrap;html=1;fillStyle=solid;strokeWidth=3;labelBackgroundColor=none;fillColor=default;gradientColor=none;gradientDirection=east;points=[[0,0.23,0,0,0],[0,0.43,0,0,0],[0,0.63,0,0,0],[0,0.82,0,0,0],[0.77,0,0,0,0],[1,0.23,0,0,0],[1,0.5,0,0,0]];" vertex="1" parent="XMEyDX0NUFnbQW_EWCy9-22">
            <mxGeometry width="110" height="168" as="geometry" />
          </mxCell>
        </UserObject>
        <mxCell id="XMEyDX0NUFnbQW_EWCy9-24" value="&lt;b&gt;RegFile&lt;/b&gt;" style="text;html=1;strokeColor=none;fillColor=none;align=center;verticalAlign=middle;whiteSpace=wrap;rounded=0;points=[];fontSize=16;" vertex="1" parent="XMEyDX0NUFnbQW_EWCy9-22">
          <mxGeometry x="9.53844036697248" y="6" width="50.45871559633027" height="14" as="geometry" />
        </mxCell>
        <mxCell id="XMEyDX0NUFnbQW_EWCy9-25" value="" style="group" vertex="1" connectable="0" parent="1">
          <mxGeometry x="110" y="30" width="27.27" height="60" as="geometry" />
        </mxCell>
        <mxCell id="XMEyDX0NUFnbQW_EWCy9-26" value="" style="shape=stencil(rZThbsIgFIWfhr9LC2GNPx1u74GIlohAgOn29rv1UmOn7bbOpGl6zqEfF3opYSK1MmhCq5awFaG0riu4gz6h5kXKFLTK6B1lNHJtNSYpR7/XJ7PJBWFcq6PJXcpeSbWEMd3FhPLOAcR4lwbJVQ4waRy8W30grEz/WdQT5WgEmOKgs46lbHQJfZtNbh5Grr+R/wRmApyxnWJiLdV+F/2729wtJ8juK9wEfXzwRz26A1ML7QHWuCsAHxIegFjMQAwJlwaej3ieQaj5AMH5f4vgvypCWZ/0RHuCP9ISTGyNtXh4JwA/Dugo8OSDVCaX2knz0utmhctQ3vp4SVH12d0jcNPoZxf/VmfjCw==);whiteSpace=wrap;html=1;fillStyle=solid;strokeWidth=3;labelBackgroundColor=none;" vertex="1" parent="XMEyDX0NUFnbQW_EWCy9-25">
          <mxGeometry width="27.27" height="60" as="geometry" />
        </mxCell>
        <mxCell id="XMEyDX0NUFnbQW_EWCy9-27" value="&lt;b style=&quot;font-size: 16px;&quot;&gt;+&lt;/b&gt;" style="text;html=1;strokeColor=none;fillColor=none;align=center;verticalAlign=middle;whiteSpace=wrap;rounded=0;points=[];fontSize=16;" vertex="1" parent="XMEyDX0NUFnbQW_EWCy9-25">
          <mxGeometry x="14.52" y="26.25" width="7.499999999999999" height="7.5" as="geometry" />
        </mxCell>
        <mxCell id="XMEyDX0NUFnbQW_EWCy9-30" value="" style="group;fontFamily=Helvetica;fontSize=12;fontColor=default;" vertex="1" connectable="0" parent="1">
          <mxGeometry x="639.0000000000002" y="658" width="27.27" height="60" as="geometry" />
        </mxCell>
        <mxCell id="XMEyDX0NUFnbQW_EWCy9-31" value="" style="shape=stencil(rZThbsIgFIWfhr9LC2GNPx1u74GIlohAgOn29rv1UmOn7bbOpGl6zqEfF3opYSK1MmhCq5awFaG0riu4gz6h5kXKFLTK6B1lNHJtNSYpR7/XJ7PJBWFcq6PJXcpeSbWEMd3FhPLOAcR4lwbJVQ4waRy8W30grEz/WdQT5WgEmOKgs46lbHQJfZtNbh5Grr+R/wRmApyxnWJiLdV+F/2729wtJ8juK9wEfXzwRz26A1ML7QHWuCsAHxIegFjMQAwJlwaej3ieQaj5AMH5f4vgvypCWZ/0RHuCP9ISTGyNtXh4JwA/Dugo8OSDVCaX2knz0utmhctQ3vp4SVH12d0jcNPoZxf/VmfjCw==);whiteSpace=wrap;html=1;fillStyle=solid;strokeWidth=3;labelBackgroundColor=none;fontFamily=Helvetica;fontSize=12;fontColor=default;" vertex="1" parent="XMEyDX0NUFnbQW_EWCy9-30">
          <mxGeometry width="27.27" height="60" as="geometry" />
        </mxCell>
        <mxCell id="XMEyDX0NUFnbQW_EWCy9-32" value="&lt;b style=&quot;font-size: 16px;&quot;&gt;+&lt;/b&gt;" style="text;html=1;strokeColor=none;fillColor=none;align=center;verticalAlign=middle;whiteSpace=wrap;rounded=0;points=[];fontSize=12;fontFamily=Helvetica;fontColor=default;" vertex="1" parent="XMEyDX0NUFnbQW_EWCy9-30">
          <mxGeometry x="14.52" y="26.25" width="7.499999999999999" height="7.5" as="geometry" />
        </mxCell>
        <mxCell id="XMEyDX0NUFnbQW_EWCy9-38" style="edgeStyle=orthogonalEdgeStyle;shape=connector;rounded=0;orthogonalLoop=1;jettySize=auto;html=1;exitX=1;exitY=0.25;exitDx=0;exitDy=0;entryX=0;entryY=0.23;entryDx=0;entryDy=0;entryPerimeter=0;labelBackgroundColor=default;strokeColor=default;strokeWidth=3;fontFamily=Helvetica;fontSize=12;fontColor=default;endArrow=none;endFill=0;" edge="1" parent="1" source="ynFBelKNf0GUv3wZ8bNa-60" target="XMEyDX0NUFnbQW_EWCy9-23">
          <mxGeometry relative="1" as="geometry" />
        </mxCell>
        <mxCell id="XMEyDX0NUFnbQW_EWCy9-43" style="edgeStyle=orthogonalEdgeStyle;shape=connector;rounded=0;orthogonalLoop=1;jettySize=auto;html=1;exitX=1;exitY=0.25;exitDx=0;exitDy=0;entryX=0;entryY=0.75;entryDx=0;entryDy=0;labelBackgroundColor=default;strokeColor=default;strokeWidth=3;fontFamily=Helvetica;fontSize=12;fontColor=default;endArrow=none;endFill=0;" edge="1" parent="1" source="ynFBelKNf0GUv3wZ8bNa-60" target="o_qKyB2CnmtH7gAWDN2e-32">
          <mxGeometry relative="1" as="geometry">
            <Array as="points">
              <mxPoint x="350" y="746" />
              <mxPoint x="350" y="953" />
            </Array>
          </mxGeometry>
        </mxCell>
        <mxCell id="XMEyDX0NUFnbQW_EWCy9-44" style="edgeStyle=orthogonalEdgeStyle;shape=connector;rounded=0;orthogonalLoop=1;jettySize=auto;html=1;exitX=1;exitY=0.25;exitDx=0;exitDy=0;entryX=0;entryY=0.43;entryDx=0;entryDy=0;entryPerimeter=0;labelBackgroundColor=default;strokeColor=default;strokeWidth=3;fontFamily=Helvetica;fontSize=12;fontColor=default;endArrow=none;endFill=0;" edge="1" parent="1" source="ynFBelKNf0GUv3wZ8bNa-60" target="XMEyDX0NUFnbQW_EWCy9-23">
          <mxGeometry relative="1" as="geometry">
            <Array as="points">
              <mxPoint x="350" y="746" />
              <mxPoint x="350" y="780" />
            </Array>
          </mxGeometry>
        </mxCell>
        <mxCell id="XMEyDX0NUFnbQW_EWCy9-45" style="edgeStyle=orthogonalEdgeStyle;shape=connector;rounded=0;orthogonalLoop=1;jettySize=auto;html=1;exitX=1;exitY=0.25;exitDx=0;exitDy=0;entryX=0;entryY=0.63;entryDx=0;entryDy=0;entryPerimeter=0;labelBackgroundColor=default;strokeColor=default;strokeWidth=3;fontFamily=Helvetica;fontSize=12;fontColor=default;endArrow=none;endFill=0;" edge="1" parent="1" source="ynFBelKNf0GUv3wZ8bNa-60" target="XMEyDX0NUFnbQW_EWCy9-23">
          <mxGeometry relative="1" as="geometry">
            <Array as="points">
              <mxPoint x="350" y="746" />
              <mxPoint x="350" y="814" />
            </Array>
          </mxGeometry>
        </mxCell>
        <mxCell id="XMEyDX0NUFnbQW_EWCy9-49" style="edgeStyle=orthogonalEdgeStyle;shape=connector;rounded=0;orthogonalLoop=1;jettySize=auto;html=1;exitX=1;exitY=0.5;exitDx=0;exitDy=0;entryX=0;entryY=0.25;entryDx=0;entryDy=0;labelBackgroundColor=default;strokeColor=default;strokeWidth=3;fontFamily=Helvetica;fontSize=12;fontColor=default;endArrow=none;endFill=0;" edge="1" parent="1" source="ynFBelKNf0GUv3wZ8bNa-29" target="XMEyDX0NUFnbQW_EWCy9-14">
          <mxGeometry relative="1" as="geometry" />
        </mxCell>
        <mxCell id="XMEyDX0NUFnbQW_EWCy9-73" style="edgeStyle=orthogonalEdgeStyle;shape=connector;rounded=0;orthogonalLoop=1;jettySize=auto;html=1;exitX=1;exitY=0.25;exitDx=0;exitDy=0;entryX=0;entryY=0.2;entryDx=0;entryDy=0;labelBackgroundColor=default;strokeColor=default;strokeWidth=3;fontFamily=Helvetica;fontSize=12;fontColor=default;endArrow=none;endFill=0;" edge="1" parent="1" source="XMEyDX0NUFnbQW_EWCy9-14" target="XMEyDX0NUFnbQW_EWCy9-67">
          <mxGeometry relative="1" as="geometry" />
        </mxCell>
        <mxCell id="XMEyDX0NUFnbQW_EWCy9-50" style="edgeStyle=orthogonalEdgeStyle;shape=connector;rounded=0;orthogonalLoop=1;jettySize=auto;html=1;exitX=1;exitY=0.5;exitDx=0;exitDy=0;exitPerimeter=0;entryX=0;entryY=0.75;entryDx=0;entryDy=0;labelBackgroundColor=default;strokeColor=default;strokeWidth=3;fontFamily=Helvetica;fontSize=12;fontColor=default;endArrow=none;endFill=0;" edge="1" parent="1" source="XMEyDX0NUFnbQW_EWCy9-23" target="XMEyDX0NUFnbQW_EWCy9-14">
          <mxGeometry relative="1" as="geometry">
            <Array as="points">
              <mxPoint x="530" y="792" />
              <mxPoint x="530" y="890" />
              <mxPoint x="740" y="890" />
              <mxPoint x="740" y="860" />
            </Array>
          </mxGeometry>
        </mxCell>
        <mxCell id="XMEyDX0NUFnbQW_EWCy9-51" style="edgeStyle=orthogonalEdgeStyle;shape=connector;rounded=0;orthogonalLoop=1;jettySize=auto;html=1;exitX=1;exitY=0.5;exitDx=0;exitDy=0;entryX=0;entryY=0.75;entryDx=0;entryDy=0;labelBackgroundColor=default;strokeColor=default;strokeWidth=3;fontFamily=Helvetica;fontSize=12;fontColor=default;endArrow=none;endFill=0;" edge="1" parent="1" source="o_qKyB2CnmtH7gAWDN2e-32" target="ynFBelKNf0GUv3wZ8bNa-8">
          <mxGeometry relative="1" as="geometry">
            <Array as="points">
              <mxPoint x="570" y="943" />
              <mxPoint x="570" y="855" />
            </Array>
          </mxGeometry>
        </mxCell>
        <mxCell id="XMEyDX0NUFnbQW_EWCy9-52" style="edgeStyle=orthogonalEdgeStyle;shape=connector;rounded=0;orthogonalLoop=1;jettySize=auto;html=1;exitX=1;exitY=0.5;exitDx=0;exitDy=0;entryX=0;entryY=0.75;entryDx=0;entryDy=0;labelBackgroundColor=default;strokeColor=default;strokeWidth=3;fontFamily=Helvetica;fontSize=12;fontColor=default;endArrow=none;endFill=0;" edge="1" parent="1" source="o_qKyB2CnmtH7gAWDN2e-32" target="XMEyDX0NUFnbQW_EWCy9-31">
          <mxGeometry relative="1" as="geometry">
            <Array as="points">
              <mxPoint x="570" y="943" />
              <mxPoint x="570" y="703" />
            </Array>
          </mxGeometry>
        </mxCell>
        <mxCell id="XMEyDX0NUFnbQW_EWCy9-54" style="edgeStyle=orthogonalEdgeStyle;shape=connector;rounded=0;orthogonalLoop=1;jettySize=auto;html=1;exitX=1;exitY=0.5;exitDx=0;exitDy=0;exitPerimeter=0;entryX=0;entryY=0.25;entryDx=0;entryDy=0;labelBackgroundColor=default;strokeColor=default;strokeWidth=3;fontFamily=Helvetica;fontSize=12;fontColor=default;endArrow=none;endFill=0;" edge="1" parent="1" source="XMEyDX0NUFnbQW_EWCy9-23" target="ynFBelKNf0GUv3wZ8bNa-8">
          <mxGeometry relative="1" as="geometry">
            <Array as="points">
              <mxPoint x="530" y="792" />
              <mxPoint x="530" y="825" />
            </Array>
          </mxGeometry>
        </mxCell>
        <mxCell id="XMEyDX0NUFnbQW_EWCy9-65" value="" style="group" vertex="1" connectable="0" parent="1">
          <mxGeometry x="20" y="10" width="25" height="100" as="geometry" />
        </mxCell>
        <UserObject label="" tooltip="Mux 2" id="XMEyDX0NUFnbQW_EWCy9-60">
          <mxCell style="shape=stencil(tZTdcoMgEIWfhstkFGptL1vTTF8DkUQmCA7QmPbpiwIdf6JtksZhHPcc/NzFBYAyXeKaAhiVAG0AhHEc2buNGxcjH2JdU2KcdsSK4ZxT52ij5IE2rDAewURJFTOti95A9GLntANlRAphIUwKPXB6voVhJuy70cnB/Oc/fbQOQm0/UVFDlU/bqQBuryY/3I38eDfy07+R18kIHaWXQ+IRI7kkO5RZZa5FUJZjctgr+SGKs+nUuG2/iRHsSh7p7DIuFRoAnIkeAA0JcXIz4vkKxCiJ+E+FEC41XfivVp9ZS5TtGOduuy8Afp3QUuyTrDFhxicP0tcQpxtXBpFcqh/XRcGbQxt66rfjsKeRD9tJKyxIGfAVK4pwmu2kMCvNvqhHwJ7cULYv/RmYS154qy3HpQnRtrvGR19vvJ9d8S7vyWaYtHynugO7E74B);whiteSpace=wrap;html=1;fillStyle=solid;strokeWidth=3;labelBackgroundColor=none;fillColor=default;gradientColor=none;gradientDirection=east;rotation=0;" vertex="1" parent="XMEyDX0NUFnbQW_EWCy9-65">
            <mxGeometry width="25" height="100" as="geometry" />
          </mxCell>
        </UserObject>
        <mxCell id="XMEyDX0NUFnbQW_EWCy9-61" value="&lt;b style=&quot;font-size: 16px;&quot;&gt;00&lt;/b&gt;" style="text;html=1;strokeColor=none;fillColor=none;align=center;verticalAlign=middle;whiteSpace=wrap;rounded=0;points=[];fontSize=16;" vertex="1" parent="XMEyDX0NUFnbQW_EWCy9-65">
          <mxGeometry x="9.333333333333329" y="14.714285714285722" width="6.666666666666666" height="8.571428571428571" as="geometry" />
        </mxCell>
        <mxCell id="XMEyDX0NUFnbQW_EWCy9-62" value="&lt;b style=&quot;font-size: 16px;&quot;&gt;01&lt;/b&gt;" style="text;html=1;strokeColor=none;fillColor=none;align=center;verticalAlign=middle;whiteSpace=wrap;rounded=0;points=[];fontSize=16;" vertex="1" parent="XMEyDX0NUFnbQW_EWCy9-65">
          <mxGeometry x="9.333333333333329" y="33" width="6.666666666666666" height="8.571428571428571" as="geometry" />
        </mxCell>
        <mxCell id="XMEyDX0NUFnbQW_EWCy9-63" value="&lt;b style=&quot;font-size: 16px;&quot;&gt;10&lt;/b&gt;" style="text;html=1;strokeColor=none;fillColor=none;align=center;verticalAlign=middle;whiteSpace=wrap;rounded=0;points=[];fontSize=16;" vertex="1" parent="XMEyDX0NUFnbQW_EWCy9-65">
          <mxGeometry x="9.333333333333329" y="52.70999999999998" width="6.666666666666666" height="8.571428571428571" as="geometry" />
        </mxCell>
        <mxCell id="XMEyDX0NUFnbQW_EWCy9-64" value="&lt;b style=&quot;font-size: 16px;&quot;&gt;11&lt;/b&gt;" style="text;html=1;strokeColor=none;fillColor=none;align=center;verticalAlign=middle;whiteSpace=wrap;rounded=0;points=[];fontSize=16;" vertex="1" parent="XMEyDX0NUFnbQW_EWCy9-65">
          <mxGeometry x="9.333333333333329" y="73" width="6.666666666666666" height="8.571428571428571" as="geometry" />
        </mxCell>
        <mxCell id="XMEyDX0NUFnbQW_EWCy9-72" value="" style="group" vertex="1" connectable="0" parent="1">
          <mxGeometry x="971" y="769" width="20" height="100" as="geometry" />
        </mxCell>
        <mxCell id="XMEyDX0NUFnbQW_EWCy9-139" style="edgeStyle=orthogonalEdgeStyle;shape=connector;rounded=0;orthogonalLoop=1;jettySize=auto;html=1;exitX=0.5;exitY=0.07;exitDx=0;exitDy=0;exitPerimeter=0;labelBackgroundColor=default;strokeColor=default;strokeWidth=3;fontFamily=Helvetica;fontSize=12;fontColor=default;endArrow=none;endFill=0;" edge="1" parent="XMEyDX0NUFnbQW_EWCy9-72" source="XMEyDX0NUFnbQW_EWCy9-67">
          <mxGeometry relative="1" as="geometry">
            <mxPoint x="10" y="-9" as="targetPoint" />
          </mxGeometry>
        </mxCell>
        <mxCell id="XMEyDX0NUFnbQW_EWCy9-140" value="RegSel" style="edgeLabel;html=1;align=center;verticalAlign=middle;resizable=0;points=[];fontSize=12;fontFamily=Helvetica;fontColor=default;" vertex="1" connectable="0" parent="XMEyDX0NUFnbQW_EWCy9-139">
          <mxGeometry x="0.8762" y="-1" relative="1" as="geometry">
            <mxPoint y="-11" as="offset" />
          </mxGeometry>
        </mxCell>
        <UserObject label="" tooltip="Mux 2" id="XMEyDX0NUFnbQW_EWCy9-67">
          <mxCell style="shape=stencil(tZTdcoMgEIWfhstkFGptL1vTTF8DkUQmCA7QmPbpiwIdf6JtksZhHPcc/NzFBYAyXeKaAhiVAG0AhHEc2buNGxcjH2JdU2KcdsSK4ZxT52ij5IE2rDAewURJFTOti95A9GLntANlRAphIUwKPXB6voVhJuy70cnB/Oc/fbQOQm0/UVFDlU/bqQBuryY/3I38eDfy07+R18kIHaWXQ+IRI7kkO5RZZa5FUJZjctgr+SGKs+nUuG2/iRHsSh7p7DIuFRoAnIkeAA0JcXIz4vkKxCiJ+E+FEC41XfivVp9ZS5TtGOduuy8Afp3QUuyTrDFhxicP0tcQpxtXBpFcqh/XRcGbQxt66rfjsKeRD9tJKyxIGfAVK4pwmu2kMCvNvqhHwJ7cULYv/RmYS154qy3HpQnRtrvGR19vvJ9d8S7vyWaYtHynugO7E74B);whiteSpace=wrap;html=1;fillStyle=solid;strokeWidth=3;labelBackgroundColor=none;fillColor=default;gradientColor=none;gradientDirection=east;rotation=0;" vertex="1" parent="XMEyDX0NUFnbQW_EWCy9-72">
            <mxGeometry y="1" width="20" height="100" as="geometry" />
          </mxCell>
        </UserObject>
        <mxCell id="XMEyDX0NUFnbQW_EWCy9-68" value="&lt;b style=&quot;font-size: 16px;&quot;&gt;0&lt;/b&gt;" style="text;html=1;strokeColor=none;fillColor=none;align=center;verticalAlign=middle;whiteSpace=wrap;rounded=0;points=[];fontSize=16;" vertex="1" parent="XMEyDX0NUFnbQW_EWCy9-72">
          <mxGeometry x="7.4666666666666615" y="14.714285714285722" width="5.333333333333333" height="8.571428571428571" as="geometry" />
        </mxCell>
        <mxCell id="XMEyDX0NUFnbQW_EWCy9-69" value="&lt;b style=&quot;font-size: 16px;&quot;&gt;1&lt;/b&gt;" style="text;html=1;strokeColor=none;fillColor=none;align=center;verticalAlign=middle;whiteSpace=wrap;rounded=0;points=[];fontSize=16;" vertex="1" parent="XMEyDX0NUFnbQW_EWCy9-72">
          <mxGeometry x="7.4666666666666615" y="33" width="5.333333333333333" height="8.571428571428571" as="geometry" />
        </mxCell>
        <mxCell id="XMEyDX0NUFnbQW_EWCy9-70" value="&lt;b style=&quot;font-size: 16px;&quot;&gt;2&lt;/b&gt;" style="text;html=1;strokeColor=none;fillColor=none;align=center;verticalAlign=middle;whiteSpace=wrap;rounded=0;points=[];fontSize=16;" vertex="1" parent="XMEyDX0NUFnbQW_EWCy9-72">
          <mxGeometry x="7.4666666666666615" y="52.70999999999998" width="5.333333333333333" height="8.571428571428571" as="geometry" />
        </mxCell>
        <mxCell id="XMEyDX0NUFnbQW_EWCy9-71" value="&lt;b style=&quot;font-size: 16px;&quot;&gt;3&lt;/b&gt;" style="text;html=1;strokeColor=none;fillColor=none;align=center;verticalAlign=middle;whiteSpace=wrap;rounded=0;points=[];fontSize=16;" vertex="1" parent="XMEyDX0NUFnbQW_EWCy9-72">
          <mxGeometry x="7.4666666666666615" y="73" width="5.333333333333333" height="8.571428571428571" as="geometry" />
        </mxCell>
        <mxCell id="XMEyDX0NUFnbQW_EWCy9-74" style="edgeStyle=orthogonalEdgeStyle;shape=connector;rounded=0;orthogonalLoop=1;jettySize=auto;html=1;exitX=1;exitY=0.5;exitDx=0;exitDy=0;entryX=0;entryY=0.4;entryDx=0;entryDy=0;labelBackgroundColor=default;strokeColor=default;strokeWidth=3;fontFamily=Helvetica;fontSize=12;fontColor=default;endArrow=none;endFill=0;" edge="1" parent="1" source="ynFBelKNf0GUv3wZ8bNa-29" target="XMEyDX0NUFnbQW_EWCy9-67">
          <mxGeometry relative="1" as="geometry">
            <Array as="points">
              <mxPoint x="770" y="790" />
              <mxPoint x="770" y="920" />
              <mxPoint x="910" y="920" />
              <mxPoint x="910" y="810" />
            </Array>
          </mxGeometry>
        </mxCell>
        <mxCell id="XMEyDX0NUFnbQW_EWCy9-76" style="edgeStyle=orthogonalEdgeStyle;shape=connector;rounded=0;orthogonalLoop=1;jettySize=auto;html=1;exitX=1;exitY=0.5;exitDx=0;exitDy=0;entryX=0;entryY=0.6;entryDx=0;entryDy=0;labelBackgroundColor=default;strokeColor=default;strokeWidth=3;fontFamily=Helvetica;fontSize=12;fontColor=default;endArrow=none;endFill=0;" edge="1" parent="1" source="o_qKyB2CnmtH7gAWDN2e-32" target="XMEyDX0NUFnbQW_EWCy9-67">
          <mxGeometry relative="1" as="geometry">
            <Array as="points">
              <mxPoint x="930" y="943" />
              <mxPoint x="930" y="830" />
            </Array>
          </mxGeometry>
        </mxCell>
        <mxCell id="XMEyDX0NUFnbQW_EWCy9-46" style="edgeStyle=orthogonalEdgeStyle;shape=connector;rounded=0;orthogonalLoop=1;jettySize=auto;html=1;exitX=0;exitY=0.82;exitDx=0;exitDy=0;exitPerimeter=0;labelBackgroundColor=default;strokeColor=default;strokeWidth=3;fontFamily=Helvetica;fontSize=12;fontColor=default;endArrow=none;endFill=0;entryX=1;entryY=0.5;entryDx=0;entryDy=0;" edge="1" parent="1" source="XMEyDX0NUFnbQW_EWCy9-23" target="XMEyDX0NUFnbQW_EWCy9-67">
          <mxGeometry relative="1" as="geometry">
            <mxPoint x="520" y="980" as="targetPoint" />
            <Array as="points">
              <mxPoint x="320" y="846" />
              <mxPoint x="320" y="980" />
              <mxPoint x="1030" y="980" />
              <mxPoint x="1030" y="820" />
            </Array>
          </mxGeometry>
        </mxCell>
        <mxCell id="XMEyDX0NUFnbQW_EWCy9-86" value="" style="group" vertex="1" connectable="0" parent="1">
          <mxGeometry x="290" y="590" width="27.27" height="60" as="geometry" />
        </mxCell>
        <mxCell id="XMEyDX0NUFnbQW_EWCy9-90" style="edgeStyle=orthogonalEdgeStyle;shape=connector;rounded=0;orthogonalLoop=1;jettySize=auto;html=1;exitX=0;exitY=0.25;exitDx=0;exitDy=0;labelBackgroundColor=default;strokeColor=default;strokeWidth=3;fontFamily=Helvetica;fontSize=12;fontColor=default;endArrow=none;endFill=0;" edge="1" parent="XMEyDX0NUFnbQW_EWCy9-86" source="XMEyDX0NUFnbQW_EWCy9-87">
          <mxGeometry relative="1" as="geometry">
            <mxPoint x="-30" y="15" as="targetPoint" />
          </mxGeometry>
        </mxCell>
        <mxCell id="XMEyDX0NUFnbQW_EWCy9-87" value="" style="shape=stencil(rZThbsIgFIWfhr9LC2GNPx1u74GIlohAgOn29rv1UmOn7bbOpGl6zqEfF3opYSK1MmhCq5awFaG0riu4gz6h5kXKFLTK6B1lNHJtNSYpR7/XJ7PJBWFcq6PJXcpeSbWEMd3FhPLOAcR4lwbJVQ4waRy8W30grEz/WdQT5WgEmOKgs46lbHQJfZtNbh5Grr+R/wRmApyxnWJiLdV+F/2729wtJ8juK9wEfXzwRz26A1ML7QHWuCsAHxIegFjMQAwJlwaej3ieQaj5AMH5f4vgvypCWZ/0RHuCP9ISTGyNtXh4JwA/Dugo8OSDVCaX2knz0utmhctQ3vp4SVH12d0jcNPoZxf/VmfjCw==);whiteSpace=wrap;html=1;fillStyle=solid;strokeWidth=3;labelBackgroundColor=none;" vertex="1" parent="XMEyDX0NUFnbQW_EWCy9-86">
          <mxGeometry width="27.27" height="60" as="geometry" />
        </mxCell>
        <mxCell id="XMEyDX0NUFnbQW_EWCy9-88" value="&lt;b style=&quot;font-size: 16px;&quot;&gt;+&lt;/b&gt;" style="text;html=1;strokeColor=none;fillColor=none;align=center;verticalAlign=middle;whiteSpace=wrap;rounded=0;points=[];fontSize=16;" vertex="1" parent="XMEyDX0NUFnbQW_EWCy9-86">
          <mxGeometry x="14.52" y="26.25" width="7.499999999999999" height="7.5" as="geometry" />
        </mxCell>
        <mxCell id="XMEyDX0NUFnbQW_EWCy9-91" value="&lt;b&gt;&lt;font style=&quot;font-size: 18px;&quot;&gt;4&lt;/font&gt;&lt;/b&gt;" style="text;html=1;align=center;verticalAlign=middle;resizable=0;points=[];autosize=1;strokeColor=none;fillColor=none;fontSize=12;fontFamily=Helvetica;fontColor=default;" vertex="1" parent="1">
          <mxGeometry x="235" y="584" width="30" height="40" as="geometry" />
        </mxCell>
        <mxCell id="XMEyDX0NUFnbQW_EWCy9-93" value="" style="group" vertex="1" connectable="0" parent="1">
          <mxGeometry x="610" y="100" width="20" height="100" as="geometry" />
        </mxCell>
        <UserObject label="" tooltip="Mux 2" id="XMEyDX0NUFnbQW_EWCy9-94">
          <mxCell style="shape=stencil(tZTdcoMgEIWfhstkFGptL1vTTF8DkUQmCA7QmPbpiwIdf6JtksZhHPcc/NzFBYAyXeKaAhiVAG0AhHEc2buNGxcjH2JdU2KcdsSK4ZxT52ij5IE2rDAewURJFTOti95A9GLntANlRAphIUwKPXB6voVhJuy70cnB/Oc/fbQOQm0/UVFDlU/bqQBuryY/3I38eDfy07+R18kIHaWXQ+IRI7kkO5RZZa5FUJZjctgr+SGKs+nUuG2/iRHsSh7p7DIuFRoAnIkeAA0JcXIz4vkKxCiJ+E+FEC41XfivVp9ZS5TtGOduuy8Afp3QUuyTrDFhxicP0tcQpxtXBpFcqh/XRcGbQxt66rfjsKeRD9tJKyxIGfAVK4pwmu2kMCvNvqhHwJ7cULYv/RmYS154qy3HpQnRtrvGR19vvJ9d8S7vyWaYtHynugO7E74B);whiteSpace=wrap;html=1;fillStyle=solid;strokeWidth=3;labelBackgroundColor=none;fillColor=default;gradientColor=none;gradientDirection=east;rotation=0;" vertex="1" parent="XMEyDX0NUFnbQW_EWCy9-93">
            <mxGeometry y="1" width="20" height="100" as="geometry" />
          </mxCell>
        </UserObject>
        <mxCell id="XMEyDX0NUFnbQW_EWCy9-95" value="&lt;b style=&quot;font-size: 16px;&quot;&gt;0&lt;/b&gt;" style="text;html=1;strokeColor=none;fillColor=none;align=center;verticalAlign=middle;whiteSpace=wrap;rounded=0;points=[];fontSize=16;" vertex="1" parent="XMEyDX0NUFnbQW_EWCy9-93">
          <mxGeometry x="7.4666666666666615" y="14.714285714285722" width="5.333333333333333" height="8.571428571428571" as="geometry" />
        </mxCell>
        <mxCell id="XMEyDX0NUFnbQW_EWCy9-96" value="&lt;b style=&quot;font-size: 16px;&quot;&gt;1&lt;/b&gt;" style="text;html=1;strokeColor=none;fillColor=none;align=center;verticalAlign=middle;whiteSpace=wrap;rounded=0;points=[];fontSize=16;" vertex="1" parent="XMEyDX0NUFnbQW_EWCy9-93">
          <mxGeometry x="7.4666666666666615" y="33" width="5.333333333333333" height="8.571428571428571" as="geometry" />
        </mxCell>
        <mxCell id="XMEyDX0NUFnbQW_EWCy9-97" value="&lt;b style=&quot;font-size: 16px;&quot;&gt;2&lt;/b&gt;" style="text;html=1;strokeColor=none;fillColor=none;align=center;verticalAlign=middle;whiteSpace=wrap;rounded=0;points=[];fontSize=16;" vertex="1" parent="XMEyDX0NUFnbQW_EWCy9-93">
          <mxGeometry x="7.4666666666666615" y="52.70999999999998" width="5.333333333333333" height="8.571428571428571" as="geometry" />
        </mxCell>
        <mxCell id="XMEyDX0NUFnbQW_EWCy9-98" value="&lt;b style=&quot;font-size: 16px;&quot;&gt;3&lt;/b&gt;" style="text;html=1;strokeColor=none;fillColor=none;align=center;verticalAlign=middle;whiteSpace=wrap;rounded=0;points=[];fontSize=16;" vertex="1" parent="XMEyDX0NUFnbQW_EWCy9-93">
          <mxGeometry x="7.4666666666666615" y="73" width="5.333333333333333" height="8.571428571428571" as="geometry" />
        </mxCell>
        <mxCell id="XMEyDX0NUFnbQW_EWCy9-105" value="" style="group" vertex="1" connectable="0" parent="1">
          <mxGeometry x="821" y="628" width="20" height="79" as="geometry" />
        </mxCell>
        <mxCell id="XMEyDX0NUFnbQW_EWCy9-120" style="edgeStyle=orthogonalEdgeStyle;shape=connector;rounded=0;orthogonalLoop=1;jettySize=auto;html=1;exitX=0.5;exitY=0.07;exitDx=0;exitDy=0;exitPerimeter=0;labelBackgroundColor=default;strokeColor=default;strokeWidth=3;fontFamily=Helvetica;fontSize=12;fontColor=default;endArrow=none;endFill=0;" edge="1" parent="XMEyDX0NUFnbQW_EWCy9-105" source="XMEyDX0NUFnbQW_EWCy9-100">
          <mxGeometry relative="1" as="geometry">
            <mxPoint x="10" y="-8" as="targetPoint" />
          </mxGeometry>
        </mxCell>
        <mxCell id="XMEyDX0NUFnbQW_EWCy9-123" value="PCSel" style="edgeLabel;html=1;align=center;verticalAlign=middle;resizable=0;points=[];fontSize=12;fontFamily=Helvetica;fontColor=default;" vertex="1" connectable="0" parent="XMEyDX0NUFnbQW_EWCy9-120">
          <mxGeometry x="0.8665" relative="1" as="geometry">
            <mxPoint x="-1" y="-9" as="offset" />
          </mxGeometry>
        </mxCell>
        <UserObject label="" tooltip="Mux 2" id="XMEyDX0NUFnbQW_EWCy9-100">
          <mxCell style="shape=stencil(tZRtb4MgEMc/DS/bIMSYvdzsmn4NRFpJEQyw2u3TDwQXH6pbu80Q490ff9zBcQDnpiINAwhWAO8AQkkC3dvZbbBxNIlpGLXBdyGak0KwoBir1Zm1vLQRwWXFNLdexa8APrs5fuCcKikdhCtpRspAdzDCpfsXXgMsLv8erS1Kg6NxS9TMMh3DDl6A9g+TU/hf5OzPYt6mEzTM7ock08TviQ7nzrN0kDgvCD2ftHqT5c1wGuKLZCb0cq0ubHEb1xLtAYLLAQCPCUn6a8TTA4hJEMmPEqFCGbZyrs6/sJc4P3IhwqVcAXw7wVPcl2oI5TYGD7KX3s52IQ2qhNJfarB6bQlt2XVYjuOaxtH0kzZE0qrH17ws+55zVNJuDP9gEYEG7pbxUxU7VaFEGSWfTggT4X33TBvUYBxu7ngX9+wyzEq+84a22jk+AQ==);whiteSpace=wrap;html=1;fillStyle=solid;strokeWidth=3;labelBackgroundColor=none;fillColor=default;gradientColor=none;gradientDirection=east;rotation=0;" vertex="1" parent="XMEyDX0NUFnbQW_EWCy9-105">
            <mxGeometry width="20" height="79" as="geometry" />
          </mxCell>
        </UserObject>
        <mxCell id="XMEyDX0NUFnbQW_EWCy9-101" value="&lt;b style=&quot;font-size: 16px;&quot;&gt;0&lt;/b&gt;" style="text;html=1;strokeColor=none;fillColor=none;align=center;verticalAlign=middle;whiteSpace=wrap;rounded=0;points=[];fontSize=16;" vertex="1" parent="XMEyDX0NUFnbQW_EWCy9-105">
          <mxGeometry x="7.466666666666697" y="13.714285714285722" width="5.333333333333333" height="8.571428571428571" as="geometry" />
        </mxCell>
        <mxCell id="XMEyDX0NUFnbQW_EWCy9-102" value="&lt;b style=&quot;font-size: 16px;&quot;&gt;1&lt;/b&gt;" style="text;html=1;strokeColor=none;fillColor=none;align=center;verticalAlign=middle;whiteSpace=wrap;rounded=0;points=[];fontSize=16;" vertex="1" parent="XMEyDX0NUFnbQW_EWCy9-105">
          <mxGeometry x="7.466666666666697" y="33" width="5.333333333333333" height="8.571428571428571" as="geometry" />
        </mxCell>
        <mxCell id="XMEyDX0NUFnbQW_EWCy9-103" value="&lt;b style=&quot;font-size: 16px;&quot;&gt;2&lt;/b&gt;" style="text;html=1;strokeColor=none;fillColor=none;align=center;verticalAlign=middle;whiteSpace=wrap;rounded=0;points=[];fontSize=16;" vertex="1" parent="XMEyDX0NUFnbQW_EWCy9-105">
          <mxGeometry x="7.466666666666697" y="52.70999999999998" width="5.333333333333333" height="8.571428571428571" as="geometry" />
        </mxCell>
        <mxCell id="XMEyDX0NUFnbQW_EWCy9-106" style="edgeStyle=orthogonalEdgeStyle;shape=connector;rounded=0;orthogonalLoop=1;jettySize=auto;html=1;exitX=1;exitY=0.5;exitDx=0;exitDy=0;entryX=0;entryY=0.75;entryDx=0;entryDy=0;labelBackgroundColor=default;strokeColor=default;strokeWidth=3;fontFamily=Helvetica;fontSize=12;fontColor=default;endArrow=none;endFill=0;" edge="1" parent="1" source="XMEyDX0NUFnbQW_EWCy9-31" target="XMEyDX0NUFnbQW_EWCy9-100">
          <mxGeometry relative="1" as="geometry" />
        </mxCell>
        <mxCell id="XMEyDX0NUFnbQW_EWCy9-107" style="edgeStyle=orthogonalEdgeStyle;shape=connector;rounded=0;orthogonalLoop=1;jettySize=auto;html=1;exitX=1;exitY=0.5;exitDx=0;exitDy=0;entryX=0;entryY=0.5;entryDx=0;entryDy=0;labelBackgroundColor=default;strokeColor=default;strokeWidth=3;fontFamily=Helvetica;fontSize=12;fontColor=default;endArrow=none;endFill=0;" edge="1" parent="1" source="ynFBelKNf0GUv3wZ8bNa-29" target="XMEyDX0NUFnbQW_EWCy9-100">
          <mxGeometry relative="1" as="geometry">
            <Array as="points">
              <mxPoint x="770" y="790" />
              <mxPoint x="770" y="668" />
            </Array>
          </mxGeometry>
        </mxCell>
        <mxCell id="XMEyDX0NUFnbQW_EWCy9-108" style="edgeStyle=orthogonalEdgeStyle;shape=connector;rounded=0;orthogonalLoop=1;jettySize=auto;html=1;exitX=1;exitY=0.5;exitDx=0;exitDy=0;entryX=0;entryY=0.25;entryDx=0;entryDy=0;labelBackgroundColor=default;strokeColor=default;strokeWidth=3;fontFamily=Helvetica;fontSize=12;fontColor=default;endArrow=none;endFill=0;" edge="1" parent="1" source="XMEyDX0NUFnbQW_EWCy9-87" target="XMEyDX0NUFnbQW_EWCy9-100">
          <mxGeometry relative="1" as="geometry">
            <Array as="points">
              <mxPoint x="750" y="620" />
              <mxPoint x="750" y="648" />
            </Array>
          </mxGeometry>
        </mxCell>
        <mxCell id="XMEyDX0NUFnbQW_EWCy9-109" style="edgeStyle=orthogonalEdgeStyle;shape=connector;rounded=0;orthogonalLoop=1;jettySize=auto;html=1;exitX=1;exitY=0.5;exitDx=0;exitDy=0;entryX=0;entryY=0.8;entryDx=0;entryDy=0;labelBackgroundColor=default;strokeColor=default;strokeWidth=3;fontFamily=Helvetica;fontSize=12;fontColor=default;endArrow=none;endFill=0;" edge="1" parent="1" source="XMEyDX0NUFnbQW_EWCy9-87" target="XMEyDX0NUFnbQW_EWCy9-67">
          <mxGeometry relative="1" as="geometry">
            <Array as="points">
              <mxPoint x="750" y="620" />
              <mxPoint x="750" y="720" />
              <mxPoint x="950" y="720" />
              <mxPoint x="950" y="850" />
            </Array>
          </mxGeometry>
        </mxCell>
        <mxCell id="XMEyDX0NUFnbQW_EWCy9-111" style="edgeStyle=orthogonalEdgeStyle;shape=connector;rounded=0;orthogonalLoop=1;jettySize=auto;html=1;exitX=1;exitY=0.5;exitDx=0;exitDy=0;labelBackgroundColor=default;strokeColor=default;strokeWidth=3;fontFamily=Helvetica;fontSize=12;fontColor=default;endArrow=none;endFill=0;entryX=0;entryY=0.5;entryDx=0;entryDy=0;" edge="1" parent="1" source="XMEyDX0NUFnbQW_EWCy9-100" target="ynFBelKNf0GUv3wZ8bNa-61">
          <mxGeometry relative="1" as="geometry">
            <mxPoint x="150" y="520" as="targetPoint" />
            <Array as="points">
              <mxPoint x="861" y="668" />
              <mxPoint x="861" y="580" />
              <mxPoint x="120" y="580" />
              <mxPoint x="120" y="746" />
            </Array>
          </mxGeometry>
        </mxCell>
        <mxCell id="XMEyDX0NUFnbQW_EWCy9-112" value="" style="ellipse;whiteSpace=wrap;html=1;aspect=fixed;fontFamily=Helvetica;fontSize=12;fontColor=default;fillColor=#121212;" vertex="1" parent="1">
          <mxGeometry x="764.64" y="785" width="10" height="10" as="geometry" />
        </mxCell>
        <mxCell id="XMEyDX0NUFnbQW_EWCy9-122" value="" style="group" vertex="1" connectable="0" parent="1">
          <mxGeometry x="796" y="734" width="90" height="161" as="geometry" />
        </mxCell>
        <UserObject label="" tooltip="Mux 2" id="XMEyDX0NUFnbQW_EWCy9-14">
          <mxCell style="shape=stencil(tZVtb4IwEMc/TV+6YAvj9YaafY1SqjSWlrSduH369QkDKhqckoZw9y+/3h29AlCha9xSAJMaoBWAcJkm9m7tLth5NLFuKTHBd8CK4ZLToGij5J52rDIRwURNFTNORWuQfNg5bqCCSCEshEmhR8pAtzDMhH03OQZYXP4nWm9ZsFu7QkMNVTHq4AVw8zAYvoycP428fFUxzsHzioEK65n6uKgoMdnvlPwW1dV4Wuw2zoXQy4080Mna3sq0B3AmBoD82YRTw8xhPIQgXGp6d9a4Xmn633QzOI4Vzke8z6i530sTWwIVW8Z5OG9uAO5OcBT7JFtMmIlBgfyzt/NVCJBILtVJDVavTaENPQ7bKhsljqLpJi2wIHWPb1hV9cfpVgqz0OyXjuvt3R1luzoewqXkVZRcOiFMiDb+Oj97B+PrasV93Bc9fdG53hv+GN7xBw==);whiteSpace=wrap;html=1;fillStyle=solid;strokeWidth=3;labelBackgroundColor=none;fillColor=default;gradientColor=none;gradientDirection=east;rotation=0;" vertex="1" parent="XMEyDX0NUFnbQW_EWCy9-122">
            <mxGeometry y="21" width="90" height="140" as="geometry" />
          </mxCell>
        </UserObject>
        <mxCell id="XMEyDX0NUFnbQW_EWCy9-15" value="&lt;b&gt;DataMem&lt;/b&gt;" style="text;html=1;strokeColor=none;fillColor=none;align=center;verticalAlign=middle;whiteSpace=wrap;rounded=0;points=[];fontSize=16;" vertex="1" parent="XMEyDX0NUFnbQW_EWCy9-122">
          <mxGeometry x="5" width="82" height="16" as="geometry" />
        </mxCell>
        <mxCell id="XMEyDX0NUFnbQW_EWCy9-127" value="&lt;b&gt;PC&lt;/b&gt;" style="text;html=1;strokeColor=none;fillColor=none;align=center;verticalAlign=middle;whiteSpace=wrap;rounded=0;points=[];fontSize=16;" vertex="1" parent="1">
          <mxGeometry x="149.54" y="696" width="20.46" height="14" as="geometry" />
        </mxCell>
        <mxCell id="XMEyDX0NUFnbQW_EWCy9-128" value="" style="group" vertex="1" connectable="0" parent="1">
          <mxGeometry x="646.27" y="122" width="20" height="79" as="geometry" />
        </mxCell>
        <UserObject label="" tooltip="Mux 2" id="XMEyDX0NUFnbQW_EWCy9-131">
          <mxCell style="shape=stencil(tZRtb4MgEMc/DS/bIMSYvdzsmn4NRFpJEQyw2u3TDwQXH6pbu80Q490ff9zBcQDnpiINAwhWAO8AQkkC3dvZbbBxNIlpGLXBdyGak0KwoBir1Zm1vLQRwWXFNLdexa8APrs5fuCcKikdhCtpRspAdzDCpfsXXgMsLv8erS1Kg6NxS9TMMh3DDl6A9g+TU/hf5OzPYt6mEzTM7ock08TviQ7nzrN0kDgvCD2ftHqT5c1wGuKLZCb0cq0ubHEb1xLtAYLLAQCPCUn6a8TTA4hJEMmPEqFCGbZyrs6/sJc4P3IhwqVcAXw7wVPcl2oI5TYGD7KX3s52IQ2qhNJfarB6bQlt2XVYjuOaxtH0kzZE0qrH17ws+55zVNJuDP9gEYEG7pbxUxU7VaFEGSWfTggT4X33TBvUYBxu7ngX9+wyzEq+84a22jk+AQ==);whiteSpace=wrap;html=1;fillStyle=solid;strokeWidth=3;labelBackgroundColor=none;fillColor=default;gradientColor=none;gradientDirection=east;rotation=0;" vertex="1" parent="XMEyDX0NUFnbQW_EWCy9-128">
            <mxGeometry width="20" height="79" as="geometry" />
          </mxCell>
        </UserObject>
        <mxCell id="XMEyDX0NUFnbQW_EWCy9-132" value="&lt;b style=&quot;font-size: 16px;&quot;&gt;0&lt;/b&gt;" style="text;html=1;strokeColor=none;fillColor=none;align=center;verticalAlign=middle;whiteSpace=wrap;rounded=0;points=[];fontSize=16;" vertex="1" parent="XMEyDX0NUFnbQW_EWCy9-128">
          <mxGeometry x="7.466666666666697" y="13.714285714285722" width="5.333333333333333" height="8.571428571428571" as="geometry" />
        </mxCell>
        <mxCell id="XMEyDX0NUFnbQW_EWCy9-133" value="&lt;b style=&quot;font-size: 16px;&quot;&gt;1&lt;/b&gt;" style="text;html=1;strokeColor=none;fillColor=none;align=center;verticalAlign=middle;whiteSpace=wrap;rounded=0;points=[];fontSize=16;" vertex="1" parent="XMEyDX0NUFnbQW_EWCy9-128">
          <mxGeometry x="7.466666666666697" y="33" width="5.333333333333333" height="8.571428571428571" as="geometry" />
        </mxCell>
        <mxCell id="XMEyDX0NUFnbQW_EWCy9-134" value="&lt;b style=&quot;font-size: 16px;&quot;&gt;2&lt;/b&gt;" style="text;html=1;strokeColor=none;fillColor=none;align=center;verticalAlign=middle;whiteSpace=wrap;rounded=0;points=[];fontSize=16;" vertex="1" parent="XMEyDX0NUFnbQW_EWCy9-128">
          <mxGeometry x="7.466666666666697" y="52.70999999999998" width="5.333333333333333" height="8.571428571428571" as="geometry" />
        </mxCell>
        <mxCell id="XMEyDX0NUFnbQW_EWCy9-135" value="" style="group" vertex="1" connectable="0" parent="1">
          <mxGeometry x="480" y="39" width="90" height="161" as="geometry" />
        </mxCell>
        <UserObject label="" tooltip="Mux 2" id="XMEyDX0NUFnbQW_EWCy9-136">
          <mxCell style="shape=stencil(tZVtb4IwEMc/TV+6YAvj9YaafY1SqjSWlrSduH369QkDKhqckoZw9y+/3h29AlCha9xSAJMaoBWAcJkm9m7tLth5NLFuKTHBd8CK4ZLToGij5J52rDIRwURNFTNORWuQfNg5bqCCSCEshEmhR8pAtzDMhH03OQZYXP4nWm9ZsFu7QkMNVTHq4AVw8zAYvoycP428fFUxzsHzioEK65n6uKgoMdnvlPwW1dV4Wuw2zoXQy4080Mna3sq0B3AmBoD82YRTw8xhPIQgXGp6d9a4Xmn633QzOI4Vzke8z6i530sTWwIVW8Z5OG9uAO5OcBT7JFtMmIlBgfyzt/NVCJBILtVJDVavTaENPQ7bKhsljqLpJi2wIHWPb1hV9cfpVgqz0OyXjuvt3R1luzoewqXkVZRcOiFMiDb+Oj97B+PrasV93Bc9fdG53hv+GN7xBw==);whiteSpace=wrap;html=1;fillStyle=solid;strokeWidth=3;labelBackgroundColor=none;fillColor=default;gradientColor=none;gradientDirection=east;rotation=0;" vertex="1" parent="XMEyDX0NUFnbQW_EWCy9-135">
            <mxGeometry y="21" width="90" height="140" as="geometry" />
          </mxCell>
        </UserObject>
        <mxCell id="XMEyDX0NUFnbQW_EWCy9-137" value="&lt;b&gt;DataMem&lt;/b&gt;" style="text;html=1;strokeColor=none;fillColor=none;align=center;verticalAlign=middle;whiteSpace=wrap;rounded=0;points=[];fontSize=16;" vertex="1" parent="XMEyDX0NUFnbQW_EWCy9-135">
          <mxGeometry x="5" width="82" height="16" as="geometry" />
        </mxCell>
      </root>
    </mxGraphModel>
  </diagram>
</mxfile>
